<?xml version="1.0" encoding="UTF-8" standalone="no"?><!-- Generator: Gravit.io --><svg xmlns="http://www.w3.org/2000/svg" xmlns:xlink="http://www.w3.org/1999/xlink" style="isolation:isolate" viewBox="0 0 1280 633.864" width="1280pt" height="633.864pt"><defs><clipPath id="_clipPath_2eeVGsNnbVS0tlOgnrjsomVvMClIcg4f"><rect width="1280" height="633.864"/></clipPath></defs><g clip-path="url(#_clipPath_2eeVGsNnbVS0tlOgnrjsomVvMClIcg4f)"><rect width="1280" height="633.864" style="fill:rgb(11,4,7)"/><defs><filter id="SGgpdU4hGWpa9OfIWA0i3lmoGnjGSdpd" x="-200%" y="-200%" width="400%" height="400%" filterUnits="objectBoundingBox" color-interpolation-filters="sRGB"><feGaussianBlur xmlns="http://www.w3.org/2000/svg" stdDeviation="21.46804531419514"/></filter></defs><g opacity="0.14" filter="url(#SGgpdU4hGWpa9OfIWA0i3lmoGnjGSdpd)"><path d=" M 365.639 228.811 L 365.639 256.52 L 393.348 256.52 L 365.639 228.811 L 365.639 228.811 Z  M 350.245 199.563 L 350.245 273.454 L 421.057 273.454 L 350.245 199.563 L 350.245 199.563 Z  M 539.641 411.459 L 539.641 411.459 L 539.641 411.459 Q 563.941 411.459 575.929 395.178 L 575.929 395.178 L 575.929 395.178 Q 587.917 378.897 587.917 349.737 L 587.917 349.737 L 587.917 349.737 Q 587.917 320.415 575.929 304.053 L 575.929 304.053 L 575.929 304.053 Q 563.941 287.691 539.641 287.691 L 539.641 287.691 L 539.641 287.691 Q 527.329 287.691 518.257 291.903 L 518.257 291.903 L 518.257 291.903 Q 509.185 296.115 503.11 304.053 L 503.11 304.053 L 503.11 304.053 Q 497.035 311.991 494.038 323.574 L 494.038 323.574 L 494.038 323.574 Q 491.041 335.157 491.041 349.737 L 491.041 349.737 L 491.041 349.737 Q 491.041 364.317 494.038 375.819 L 494.038 375.819 L 494.038 375.819 Q 497.035 387.321 503.11 395.178 L 503.11 395.178 L 503.11 395.178 Q 509.185 403.035 518.257 407.247 L 518.257 407.247 L 518.257 407.247 Q 527.329 411.459 539.641 411.459 L 539.641 411.459 L 539.641 411.459 Z  M 703.099 434.301 L 703.099 434.301 L 703.099 434.301 Q 683.659 434.301 673.21 423.447 L 673.21 423.447 L 673.21 423.447 Q 662.761 412.593 662.761 392.181 L 662.761 392.181 L 662.761 291.741 L 642.997 291.741 L 642.997 291.741 Q 640.405 291.741 638.623 290.202 L 638.623 290.202 L 638.623 290.202 Q 636.841 288.663 636.841 285.423 L 636.841 285.423 L 636.841 273.921 L 663.733 270.519 L 670.375 219.813 L 670.375 219.813 Q 670.699 217.383 672.481 215.844 L 672.481 215.844 L 672.481 215.844 Q 674.263 214.305 677.017 214.305 L 677.017 214.305 L 691.597 214.305 L 691.597 270.843 L 738.577 270.843 L 738.577 291.741 L 691.597 291.741 L 691.597 390.237 L 691.597 390.237 Q 691.597 400.605 696.619 405.627 L 696.619 405.627 L 696.619 405.627 Q 701.641 410.649 709.579 410.649 L 709.579 410.649 L 709.579 410.649 Q 714.115 410.649 717.436 409.434 L 717.436 409.434 L 717.436 409.434 Q 720.757 408.219 723.187 406.761 L 723.187 406.761 L 723.187 406.761 Q 725.617 405.303 727.318 404.088 L 727.318 404.088 L 727.318 404.088 Q 729.019 402.873 730.315 402.873 L 730.315 402.873 L 730.315 402.873 Q 732.583 402.873 734.365 405.627 L 734.365 405.627 L 742.789 419.397 L 742.789 419.397 Q 735.337 426.363 724.807 430.332 L 724.807 430.332 L 724.807 430.332 Q 714.277 434.301 703.099 434.301 L 703.099 434.301 L 703.099 434.301 Z  M 839.827 286.233 L 839.827 286.233 L 839.827 286.233 Q 818.929 286.233 806.941 298.302 L 806.941 298.302 L 806.941 298.302 Q 794.953 310.371 792.037 331.755 L 792.037 331.755 L 881.299 331.755 L 881.299 331.755 Q 881.299 321.711 878.545 313.368 L 878.545 313.368 L 878.545 313.368 Q 875.791 305.025 870.445 298.95 L 870.445 298.95 L 870.445 298.95 Q 865.099 292.875 857.404 289.554 L 857.404 289.554 L 857.404 289.554 Q 849.709 286.233 839.827 286.233 L 839.827 286.233 L 839.827 286.233 Z  M 1044.433 284.127 L 1037.953 294.657 L 1037.953 294.657 Q 1036.009 298.221 1031.959 298.221 L 1031.959 298.221 L 1031.959 298.221 Q 1029.529 298.221 1026.451 296.439 L 1026.451 296.439 L 1026.451 296.439 Q 1023.373 294.657 1018.918 292.47 L 1018.918 292.47 L 1018.918 292.47 Q 1014.463 290.283 1008.307 288.42 L 1008.307 288.42 L 1008.307 288.42 Q 1002.151 286.557 993.727 286.557 L 993.727 286.557 L 993.727 286.557 Q 986.437 286.557 980.605 288.42 L 980.605 288.42 L 980.605 288.42 Q 974.773 290.283 970.642 293.523 L 970.642 293.523 L 970.642 293.523 Q 966.511 296.763 964.324 301.056 L 964.324 301.056 L 964.324 301.056 Q 962.137 305.349 962.137 310.371 L 962.137 310.371 L 962.137 310.371 Q 962.137 316.689 965.782 320.901 L 965.782 320.901 L 965.782 320.901 Q 969.427 325.113 975.421 328.191 L 975.421 328.191 L 975.421 328.191 Q 981.415 331.269 989.029 333.618 L 989.029 333.618 L 989.029 333.618 Q 996.643 335.967 1004.662 338.64 L 1004.662 338.64 L 1004.662 338.64 Q 1012.681 341.313 1020.295 344.553 L 1020.295 344.553 L 1020.295 344.553 Q 1027.909 347.793 1033.903 352.653 L 1033.903 352.653 L 1033.903 352.653 Q 1039.897 357.513 1043.542 364.56 L 1043.542 364.56 L 1043.542 364.56 Q 1047.187 371.607 1047.187 381.489 L 1047.187 381.489 L 1047.187 381.489 Q 1047.187 392.829 1043.137 402.468 L 1043.137 402.468 L 1043.137 402.468 Q 1039.087 412.107 1031.149 419.154 L 1031.149 419.154 L 1031.149 419.154 Q 1023.211 426.201 1011.709 430.251 L 1011.709 430.251 L 1011.709 430.251 Q 1000.207 434.301 985.141 434.301 L 985.141 434.301 L 985.141 434.301 Q 967.969 434.301 954.037 428.712 L 954.037 428.712 L 954.037 428.712 Q 940.105 423.123 930.385 414.375 L 930.385 414.375 L 937.189 403.359 L 937.189 403.359 Q 938.485 401.253 940.267 400.119 L 940.267 400.119 L 940.267 400.119 Q 942.049 398.985 944.965 398.985 L 944.965 398.985 L 944.965 398.985 Q 947.881 398.985 951.121 401.253 L 951.121 401.253 L 951.121 401.253 Q 954.361 403.521 958.978 406.275 L 958.978 406.275 L 958.978 406.275 Q 963.595 409.029 970.156 411.297 L 970.156 411.297 L 970.156 411.297 Q 976.717 413.565 986.599 413.565 L 986.599 413.565 L 986.599 413.565 Q 995.023 413.565 1001.341 411.378 L 1001.341 411.378 L 1001.341 411.378 Q 1007.659 409.191 1011.871 405.465 L 1011.871 405.465 L 1011.871 405.465 Q 1016.083 401.739 1018.108 396.879 L 1018.108 396.879 L 1018.108 396.879 Q 1020.133 392.019 1020.133 386.511 L 1020.133 386.511 L 1020.133 386.511 Q 1020.133 379.707 1016.488 375.252 L 1016.488 375.252 L 1016.488 375.252 Q 1012.843 370.797 1006.849 367.638 L 1006.849 367.638 L 1006.849 367.638 Q 1000.855 364.479 993.16 362.13 L 993.16 362.13 L 993.16 362.13 Q 985.465 359.781 977.446 357.189 L 977.446 357.189 L 977.446 357.189 Q 969.427 354.597 961.732 351.276 L 961.732 351.276 L 961.732 351.276 Q 954.037 347.955 948.043 342.933 L 948.043 342.933 L 948.043 342.933 Q 942.049 337.911 938.404 330.54 L 938.404 330.54 L 938.404 330.54 Q 934.759 323.169 934.759 312.639 L 934.759 312.639 L 934.759 312.639 Q 934.759 303.243 938.647 294.576 L 938.647 294.576 L 938.647 294.576 Q 942.535 285.909 949.987 279.348 L 949.987 279.348 L 949.987 279.348 Q 957.439 272.787 968.293 268.899 L 968.293 268.899 L 968.293 268.899 Q 979.147 265.011 993.079 265.011 L 993.079 265.011 L 993.079 265.011 Q 1009.279 265.011 1022.158 270.114 L 1022.158 270.114 L 1022.158 270.114 Q 1035.037 275.217 1044.433 284.127 L 1044.433 284.127 L 1044.433 284.127 L 1044.433 284.127 L 1044.433 284.127 Z  M 393.517 279.389 L 393.517 363.993 L 393.517 363.993 Q 393.517 367.719 393.679 371.688 L 393.679 371.688 L 393.679 371.688 Q 393.841 375.657 394.327 379.869 L 394.327 379.869 L 259.867 204.909 L 259.867 204.909 Q 257.275 201.669 255.25 200.616 L 255.25 200.616 L 255.25 200.616 Q 253.225 199.563 249.013 199.563 L 249.013 199.563 L 249.013 199.563 L 249.013 199.563 L 249.013 199.563 L 232.813 199.563 L 232.813 431.709 L 260.353 431.709 L 260.353 266.307 L 260.353 266.307 Q 260.353 263.067 260.191 259.179 L 260.191 259.179 L 260.191 259.179 Q 260.029 255.291 259.705 251.241 L 259.705 251.241 L 394.003 426.039 L 394.003 426.039 Q 396.433 429.117 398.944 430.413 L 398.944 430.413 L 398.944 430.413 Q 401.455 431.709 405.181 431.709 L 405.181 431.709 L 421.057 431.709 L 421.057 279.389 L 393.517 279.389 L 393.517 279.389 Z  M 539.641 265.011 L 539.641 265.011 L 539.641 265.011 Q 557.623 265.011 572.122 271.005 L 572.122 271.005 L 572.122 271.005 Q 586.621 276.999 596.746 288.015 L 596.746 288.015 L 596.746 288.015 Q 606.871 299.031 612.298 314.664 L 612.298 314.664 L 612.298 314.664 Q 617.725 330.297 617.725 349.575 L 617.725 349.575 L 617.725 349.575 Q 617.725 369.015 612.298 384.567 L 612.298 384.567 L 612.298 384.567 Q 606.871 400.119 596.746 411.135 L 596.746 411.135 L 596.746 411.135 Q 586.621 422.151 572.122 428.064 L 572.122 428.064 L 572.122 428.064 Q 557.623 433.977 539.641 433.977 L 539.641 433.977 L 539.641 433.977 Q 521.659 433.977 507.16 428.064 L 507.16 428.064 L 507.16 428.064 Q 492.661 422.151 482.455 411.135 L 482.455 411.135 L 482.455 411.135 Q 472.249 400.119 466.741 384.567 L 466.741 384.567 L 466.741 384.567 Q 461.233 369.015 461.233 349.575 L 461.233 349.575 L 461.233 349.575 Q 461.233 330.297 466.741 314.664 L 466.741 314.664 L 466.741 314.664 Q 472.249 299.031 482.455 288.015 L 482.455 288.015 L 482.455 288.015 Q 492.661 276.999 507.16 271.005 L 507.16 271.005 L 507.16 271.005 Q 521.659 265.011 539.641 265.011 L 539.641 265.011 L 539.641 265.011 Z  M 839.179 265.011 L 839.179 265.011 L 839.179 265.011 Q 853.921 265.011 866.395 269.952 L 866.395 269.952 L 866.395 269.952 Q 878.869 274.893 887.941 284.208 L 887.941 284.208 L 887.941 284.208 Q 897.013 293.523 902.116 307.212 L 902.116 307.212 L 902.116 307.212 Q 907.219 320.901 907.219 338.397 L 907.219 338.397 L 907.219 338.397 Q 907.219 345.201 905.761 347.469 L 905.761 347.469 L 905.761 347.469 Q 904.303 349.737 900.253 349.737 L 900.253 349.737 L 791.065 349.737 L 791.065 349.737 Q 791.389 365.289 795.277 376.791 L 795.277 376.791 L 795.277 376.791 Q 799.165 388.293 805.969 395.988 L 805.969 395.988 L 805.969 395.988 Q 812.773 403.683 822.169 407.49 L 822.169 407.49 L 822.169 407.49 Q 831.565 411.297 843.229 411.297 L 843.229 411.297 L 843.229 411.297 Q 854.083 411.297 861.94 408.786 L 861.94 408.786 L 861.94 408.786 Q 869.797 406.275 875.467 403.359 L 875.467 403.359 L 875.467 403.359 Q 881.137 400.443 884.944 397.932 L 884.944 397.932 L 884.944 397.932 Q 888.751 395.421 891.505 395.421 L 891.505 395.421 L 891.505 395.421 Q 895.069 395.421 897.013 398.175 L 897.013 398.175 L 905.113 408.705 L 905.113 408.705 Q 899.767 415.185 892.315 419.964 L 892.315 419.964 L 892.315 419.964 Q 884.863 424.743 876.358 427.821 L 876.358 427.821 L 876.358 427.821 Q 867.853 430.899 858.781 432.438 L 858.781 432.438 L 858.781 432.438 Q 849.709 433.977 840.799 433.977 L 840.799 433.977 L 840.799 433.977 Q 823.789 433.977 809.452 428.226 L 809.452 428.226 L 809.452 428.226 Q 795.115 422.475 784.666 411.378 L 784.666 411.378 L 784.666 411.378 Q 774.217 400.281 768.385 383.919 L 768.385 383.919 L 768.385 383.919 Q 762.553 367.557 762.553 346.335 L 762.553 346.335 L 762.553 346.335 Q 762.553 329.163 767.818 314.259 L 767.818 314.259 L 767.818 314.259 Q 773.083 299.355 782.965 288.42 L 782.965 288.42 L 782.965 288.42 Q 792.847 277.485 807.103 271.248 L 807.103 271.248 L 807.103 271.248 Q 821.359 265.011 839.179 265.011 L 839.179 265.011 L 839.179 265.011 Z " fill-rule="evenodd" fill="rgb(171,188,244)"/></g><radialGradient id="_rgradient_0" fx="0.5" fy="0.5" cx="0.5" cy="0.5" r="0.5" gradientTransform="matrix(814.374,0,0,234.738,232.813,199.563)" gradientUnits="userSpaceOnUse"><stop offset="0%" stop-opacity="1" style="stop-color:rgb(171,188,244)"/><stop offset="32.5%" stop-opacity="1" style="stop-color:rgb(89,110,179)"/><stop offset="63.33333333333333%" stop-opacity="1" style="stop-color:rgb(138,62,164)"/><stop offset="80.41666666666667%" stop-opacity="1" style="stop-color:rgb(130,31,95)"/><stop offset="98.33333333333333%" stop-opacity="1" style="stop-color:rgb(53,11,30)"/></radialGradient><path d=" M 365.639 228.811 L 365.639 256.52 L 393.348 256.52 L 365.639 228.811 L 365.639 228.811 Z  M 350.245 199.563 L 350.245 273.454 L 421.057 273.454 L 350.245 199.563 L 350.245 199.563 Z  M 539.641 411.459 L 539.641 411.459 L 539.641 411.459 Q 563.941 411.459 575.929 395.178 L 575.929 395.178 L 575.929 395.178 Q 587.917 378.897 587.917 349.737 L 587.917 349.737 L 587.917 349.737 Q 587.917 320.415 575.929 304.053 L 575.929 304.053 L 575.929 304.053 Q 563.941 287.691 539.641 287.691 L 539.641 287.691 L 539.641 287.691 Q 527.329 287.691 518.257 291.903 L 518.257 291.903 L 518.257 291.903 Q 509.185 296.115 503.11 304.053 L 503.11 304.053 L 503.11 304.053 Q 497.035 311.991 494.038 323.574 L 494.038 323.574 L 494.038 323.574 Q 491.041 335.157 491.041 349.737 L 491.041 349.737 L 491.041 349.737 Q 491.041 364.317 494.038 375.819 L 494.038 375.819 L 494.038 375.819 Q 497.035 387.321 503.11 395.178 L 503.11 395.178 L 503.11 395.178 Q 509.185 403.035 518.257 407.247 L 518.257 407.247 L 518.257 407.247 Q 527.329 411.459 539.641 411.459 L 539.641 411.459 L 539.641 411.459 Z  M 703.099 434.301 L 703.099 434.301 L 703.099 434.301 Q 683.659 434.301 673.21 423.447 L 673.21 423.447 L 673.21 423.447 Q 662.761 412.593 662.761 392.181 L 662.761 392.181 L 662.761 291.741 L 642.997 291.741 L 642.997 291.741 Q 640.405 291.741 638.623 290.202 L 638.623 290.202 L 638.623 290.202 Q 636.841 288.663 636.841 285.423 L 636.841 285.423 L 636.841 273.921 L 663.733 270.519 L 670.375 219.813 L 670.375 219.813 Q 670.699 217.383 672.481 215.844 L 672.481 215.844 L 672.481 215.844 Q 674.263 214.305 677.017 214.305 L 677.017 214.305 L 691.597 214.305 L 691.597 270.843 L 738.577 270.843 L 738.577 291.741 L 691.597 291.741 L 691.597 390.237 L 691.597 390.237 Q 691.597 400.605 696.619 405.627 L 696.619 405.627 L 696.619 405.627 Q 701.641 410.649 709.579 410.649 L 709.579 410.649 L 709.579 410.649 Q 714.115 410.649 717.436 409.434 L 717.436 409.434 L 717.436 409.434 Q 720.757 408.219 723.187 406.761 L 723.187 406.761 L 723.187 406.761 Q 725.617 405.303 727.318 404.088 L 727.318 404.088 L 727.318 404.088 Q 729.019 402.873 730.315 402.873 L 730.315 402.873 L 730.315 402.873 Q 732.583 402.873 734.365 405.627 L 734.365 405.627 L 742.789 419.397 L 742.789 419.397 Q 735.337 426.363 724.807 430.332 L 724.807 430.332 L 724.807 430.332 Q 714.277 434.301 703.099 434.301 L 703.099 434.301 L 703.099 434.301 Z  M 839.827 286.233 L 839.827 286.233 L 839.827 286.233 Q 818.929 286.233 806.941 298.302 L 806.941 298.302 L 806.941 298.302 Q 794.953 310.371 792.037 331.755 L 792.037 331.755 L 881.299 331.755 L 881.299 331.755 Q 881.299 321.711 878.545 313.368 L 878.545 313.368 L 878.545 313.368 Q 875.791 305.025 870.445 298.95 L 870.445 298.95 L 870.445 298.95 Q 865.099 292.875 857.404 289.554 L 857.404 289.554 L 857.404 289.554 Q 849.709 286.233 839.827 286.233 L 839.827 286.233 L 839.827 286.233 Z  M 1044.433 284.127 L 1037.953 294.657 L 1037.953 294.657 Q 1036.009 298.221 1031.959 298.221 L 1031.959 298.221 L 1031.959 298.221 Q 1029.529 298.221 1026.451 296.439 L 1026.451 296.439 L 1026.451 296.439 Q 1023.373 294.657 1018.918 292.47 L 1018.918 292.47 L 1018.918 292.47 Q 1014.463 290.283 1008.307 288.42 L 1008.307 288.42 L 1008.307 288.42 Q 1002.151 286.557 993.727 286.557 L 993.727 286.557 L 993.727 286.557 Q 986.437 286.557 980.605 288.42 L 980.605 288.42 L 980.605 288.42 Q 974.773 290.283 970.642 293.523 L 970.642 293.523 L 970.642 293.523 Q 966.511 296.763 964.324 301.056 L 964.324 301.056 L 964.324 301.056 Q 962.137 305.349 962.137 310.371 L 962.137 310.371 L 962.137 310.371 Q 962.137 316.689 965.782 320.901 L 965.782 320.901 L 965.782 320.901 Q 969.427 325.113 975.421 328.191 L 975.421 328.191 L 975.421 328.191 Q 981.415 331.269 989.029 333.618 L 989.029 333.618 L 989.029 333.618 Q 996.643 335.967 1004.662 338.64 L 1004.662 338.64 L 1004.662 338.64 Q 1012.681 341.313 1020.295 344.553 L 1020.295 344.553 L 1020.295 344.553 Q 1027.909 347.793 1033.903 352.653 L 1033.903 352.653 L 1033.903 352.653 Q 1039.897 357.513 1043.542 364.56 L 1043.542 364.56 L 1043.542 364.56 Q 1047.187 371.607 1047.187 381.489 L 1047.187 381.489 L 1047.187 381.489 Q 1047.187 392.829 1043.137 402.468 L 1043.137 402.468 L 1043.137 402.468 Q 1039.087 412.107 1031.149 419.154 L 1031.149 419.154 L 1031.149 419.154 Q 1023.211 426.201 1011.709 430.251 L 1011.709 430.251 L 1011.709 430.251 Q 1000.207 434.301 985.141 434.301 L 985.141 434.301 L 985.141 434.301 Q 967.969 434.301 954.037 428.712 L 954.037 428.712 L 954.037 428.712 Q 940.105 423.123 930.385 414.375 L 930.385 414.375 L 937.189 403.359 L 937.189 403.359 Q 938.485 401.253 940.267 400.119 L 940.267 400.119 L 940.267 400.119 Q 942.049 398.985 944.965 398.985 L 944.965 398.985 L 944.965 398.985 Q 947.881 398.985 951.121 401.253 L 951.121 401.253 L 951.121 401.253 Q 954.361 403.521 958.978 406.275 L 958.978 406.275 L 958.978 406.275 Q 963.595 409.029 970.156 411.297 L 970.156 411.297 L 970.156 411.297 Q 976.717 413.565 986.599 413.565 L 986.599 413.565 L 986.599 413.565 Q 995.023 413.565 1001.341 411.378 L 1001.341 411.378 L 1001.341 411.378 Q 1007.659 409.191 1011.871 405.465 L 1011.871 405.465 L 1011.871 405.465 Q 1016.083 401.739 1018.108 396.879 L 1018.108 396.879 L 1018.108 396.879 Q 1020.133 392.019 1020.133 386.511 L 1020.133 386.511 L 1020.133 386.511 Q 1020.133 379.707 1016.488 375.252 L 1016.488 375.252 L 1016.488 375.252 Q 1012.843 370.797 1006.849 367.638 L 1006.849 367.638 L 1006.849 367.638 Q 1000.855 364.479 993.16 362.13 L 993.16 362.13 L 993.16 362.13 Q 985.465 359.781 977.446 357.189 L 977.446 357.189 L 977.446 357.189 Q 969.427 354.597 961.732 351.276 L 961.732 351.276 L 961.732 351.276 Q 954.037 347.955 948.043 342.933 L 948.043 342.933 L 948.043 342.933 Q 942.049 337.911 938.404 330.54 L 938.404 330.54 L 938.404 330.54 Q 934.759 323.169 934.759 312.639 L 934.759 312.639 L 934.759 312.639 Q 934.759 303.243 938.647 294.576 L 938.647 294.576 L 938.647 294.576 Q 942.535 285.909 949.987 279.348 L 949.987 279.348 L 949.987 279.348 Q 957.439 272.787 968.293 268.899 L 968.293 268.899 L 968.293 268.899 Q 979.147 265.011 993.079 265.011 L 993.079 265.011 L 993.079 265.011 Q 1009.279 265.011 1022.158 270.114 L 1022.158 270.114 L 1022.158 270.114 Q 1035.037 275.217 1044.433 284.127 L 1044.433 284.127 L 1044.433 284.127 L 1044.433 284.127 L 1044.433 284.127 Z  M 393.517 279.389 L 393.517 363.993 L 393.517 363.993 Q 393.517 367.719 393.679 371.688 L 393.679 371.688 L 393.679 371.688 Q 393.841 375.657 394.327 379.869 L 394.327 379.869 L 259.867 204.909 L 259.867 204.909 Q 257.275 201.669 255.25 200.616 L 255.25 200.616 L 255.25 200.616 Q 253.225 199.563 249.013 199.563 L 249.013 199.563 L 249.013 199.563 L 249.013 199.563 L 249.013 199.563 L 232.813 199.563 L 232.813 431.709 L 260.353 431.709 L 260.353 266.307 L 260.353 266.307 Q 260.353 263.067 260.191 259.179 L 260.191 259.179 L 260.191 259.179 Q 260.029 255.291 259.705 251.241 L 259.705 251.241 L 394.003 426.039 L 394.003 426.039 Q 396.433 429.117 398.944 430.413 L 398.944 430.413 L 398.944 430.413 Q 401.455 431.709 405.181 431.709 L 405.181 431.709 L 421.057 431.709 L 421.057 279.389 L 393.517 279.389 L 393.517 279.389 Z  M 539.641 265.011 L 539.641 265.011 L 539.641 265.011 Q 557.623 265.011 572.122 271.005 L 572.122 271.005 L 572.122 271.005 Q 586.621 276.999 596.746 288.015 L 596.746 288.015 L 596.746 288.015 Q 606.871 299.031 612.298 314.664 L 612.298 314.664 L 612.298 314.664 Q 617.725 330.297 617.725 349.575 L 617.725 349.575 L 617.725 349.575 Q 617.725 369.015 612.298 384.567 L 612.298 384.567 L 612.298 384.567 Q 606.871 400.119 596.746 411.135 L 596.746 411.135 L 596.746 411.135 Q 586.621 422.151 572.122 428.064 L 572.122 428.064 L 572.122 428.064 Q 557.623 433.977 539.641 433.977 L 539.641 433.977 L 539.641 433.977 Q 521.659 433.977 507.16 428.064 L 507.16 428.064 L 507.16 428.064 Q 492.661 422.151 482.455 411.135 L 482.455 411.135 L 482.455 411.135 Q 472.249 400.119 466.741 384.567 L 466.741 384.567 L 466.741 384.567 Q 461.233 369.015 461.233 349.575 L 461.233 349.575 L 461.233 349.575 Q 461.233 330.297 466.741 314.664 L 466.741 314.664 L 466.741 314.664 Q 472.249 299.031 482.455 288.015 L 482.455 288.015 L 482.455 288.015 Q 492.661 276.999 507.16 271.005 L 507.16 271.005 L 507.16 271.005 Q 521.659 265.011 539.641 265.011 L 539.641 265.011 L 539.641 265.011 Z  M 839.179 265.011 L 839.179 265.011 L 839.179 265.011 Q 853.921 265.011 866.395 269.952 L 866.395 269.952 L 866.395 269.952 Q 878.869 274.893 887.941 284.208 L 887.941 284.208 L 887.941 284.208 Q 897.013 293.523 902.116 307.212 L 902.116 307.212 L 902.116 307.212 Q 907.219 320.901 907.219 338.397 L 907.219 338.397 L 907.219 338.397 Q 907.219 345.201 905.761 347.469 L 905.761 347.469 L 905.761 347.469 Q 904.303 349.737 900.253 349.737 L 900.253 349.737 L 791.065 349.737 L 791.065 349.737 Q 791.389 365.289 795.277 376.791 L 795.277 376.791 L 795.277 376.791 Q 799.165 388.293 805.969 395.988 L 805.969 395.988 L 805.969 395.988 Q 812.773 403.683 822.169 407.49 L 822.169 407.49 L 822.169 407.49 Q 831.565 411.297 843.229 411.297 L 843.229 411.297 L 843.229 411.297 Q 854.083 411.297 861.94 408.786 L 861.94 408.786 L 861.94 408.786 Q 869.797 406.275 875.467 403.359 L 875.467 403.359 L 875.467 403.359 Q 881.137 400.443 884.944 397.932 L 884.944 397.932 L 884.944 397.932 Q 888.751 395.421 891.505 395.421 L 891.505 395.421 L 891.505 395.421 Q 895.069 395.421 897.013 398.175 L 897.013 398.175 L 905.113 408.705 L 905.113 408.705 Q 899.767 415.185 892.315 419.964 L 892.315 419.964 L 892.315 419.964 Q 884.863 424.743 876.358 427.821 L 876.358 427.821 L 876.358 427.821 Q 867.853 430.899 858.781 432.438 L 858.781 432.438 L 858.781 432.438 Q 849.709 433.977 840.799 433.977 L 840.799 433.977 L 840.799 433.977 Q 823.789 433.977 809.452 428.226 L 809.452 428.226 L 809.452 428.226 Q 795.115 422.475 784.666 411.378 L 784.666 411.378 L 784.666 411.378 Q 774.217 400.281 768.385 383.919 L 768.385 383.919 L 768.385 383.919 Q 762.553 367.557 762.553 346.335 L 762.553 346.335 L 762.553 346.335 Q 762.553 329.163 767.818 314.259 L 767.818 314.259 L 767.818 314.259 Q 773.083 299.355 782.965 288.42 L 782.965 288.42 L 782.965 288.42 Q 792.847 277.485 807.103 271.248 L 807.103 271.248 L 807.103 271.248 Q 821.359 265.011 839.179 265.011 L 839.179 265.011 L 839.179 265.011 Z " fill-rule="evenodd" fill="url(#_rgradient_0)"/><path d=" M 365.639 228.811 L 365.639 256.52 L 393.348 256.52 L 365.639 228.811 L 365.639 228.811 Z  M 350.245 199.563 L 350.245 273.454 L 421.057 273.454 L 350.245 199.563 L 350.245 199.563 Z  M 539.641 411.459 L 539.641 411.459 L 539.641 411.459 Q 563.941 411.459 575.929 395.178 L 575.929 395.178 L 575.929 395.178 Q 587.917 378.897 587.917 349.737 L 587.917 349.737 L 587.917 349.737 Q 587.917 320.415 575.929 304.053 L 575.929 304.053 L 575.929 304.053 Q 563.941 287.691 539.641 287.691 L 539.641 287.691 L 539.641 287.691 Q 527.329 287.691 518.257 291.903 L 518.257 291.903 L 518.257 291.903 Q 509.185 296.115 503.11 304.053 L 503.11 304.053 L 503.11 304.053 Q 497.035 311.991 494.038 323.574 L 494.038 323.574 L 494.038 323.574 Q 491.041 335.157 491.041 349.737 L 491.041 349.737 L 491.041 349.737 Q 491.041 364.317 494.038 375.819 L 494.038 375.819 L 494.038 375.819 Q 497.035 387.321 503.11 395.178 L 503.11 395.178 L 503.11 395.178 Q 509.185 403.035 518.257 407.247 L 518.257 407.247 L 518.257 407.247 Q 527.329 411.459 539.641 411.459 L 539.641 411.459 L 539.641 411.459 Z  M 703.099 434.301 L 703.099 434.301 L 703.099 434.301 Q 683.659 434.301 673.21 423.447 L 673.21 423.447 L 673.21 423.447 Q 662.761 412.593 662.761 392.181 L 662.761 392.181 L 662.761 291.741 L 642.997 291.741 L 642.997 291.741 Q 640.405 291.741 638.623 290.202 L 638.623 290.202 L 638.623 290.202 Q 636.841 288.663 636.841 285.423 L 636.841 285.423 L 636.841 273.921 L 663.733 270.519 L 670.375 219.813 L 670.375 219.813 Q 670.699 217.383 672.481 215.844 L 672.481 215.844 L 672.481 215.844 Q 674.263 214.305 677.017 214.305 L 677.017 214.305 L 691.597 214.305 L 691.597 270.843 L 738.577 270.843 L 738.577 291.741 L 691.597 291.741 L 691.597 390.237 L 691.597 390.237 Q 691.597 400.605 696.619 405.627 L 696.619 405.627 L 696.619 405.627 Q 701.641 410.649 709.579 410.649 L 709.579 410.649 L 709.579 410.649 Q 714.115 410.649 717.436 409.434 L 717.436 409.434 L 717.436 409.434 Q 720.757 408.219 723.187 406.761 L 723.187 406.761 L 723.187 406.761 Q 725.617 405.303 727.318 404.088 L 727.318 404.088 L 727.318 404.088 Q 729.019 402.873 730.315 402.873 L 730.315 402.873 L 730.315 402.873 Q 732.583 402.873 734.365 405.627 L 734.365 405.627 L 742.789 419.397 L 742.789 419.397 Q 735.337 426.363 724.807 430.332 L 724.807 430.332 L 724.807 430.332 Q 714.277 434.301 703.099 434.301 L 703.099 434.301 L 703.099 434.301 Z  M 839.827 286.233 L 839.827 286.233 L 839.827 286.233 Q 818.929 286.233 806.941 298.302 L 806.941 298.302 L 806.941 298.302 Q 794.953 310.371 792.037 331.755 L 792.037 331.755 L 881.299 331.755 L 881.299 331.755 Q 881.299 321.711 878.545 313.368 L 878.545 313.368 L 878.545 313.368 Q 875.791 305.025 870.445 298.95 L 870.445 298.95 L 870.445 298.95 Q 865.099 292.875 857.404 289.554 L 857.404 289.554 L 857.404 289.554 Q 849.709 286.233 839.827 286.233 L 839.827 286.233 L 839.827 286.233 Z  M 1044.433 284.127 L 1037.953 294.657 L 1037.953 294.657 Q 1036.009 298.221 1031.959 298.221 L 1031.959 298.221 L 1031.959 298.221 Q 1029.529 298.221 1026.451 296.439 L 1026.451 296.439 L 1026.451 296.439 Q 1023.373 294.657 1018.918 292.47 L 1018.918 292.47 L 1018.918 292.47 Q 1014.463 290.283 1008.307 288.42 L 1008.307 288.42 L 1008.307 288.42 Q 1002.151 286.557 993.727 286.557 L 993.727 286.557 L 993.727 286.557 Q 986.437 286.557 980.605 288.42 L 980.605 288.42 L 980.605 288.42 Q 974.773 290.283 970.642 293.523 L 970.642 293.523 L 970.642 293.523 Q 966.511 296.763 964.324 301.056 L 964.324 301.056 L 964.324 301.056 Q 962.137 305.349 962.137 310.371 L 962.137 310.371 L 962.137 310.371 Q 962.137 316.689 965.782 320.901 L 965.782 320.901 L 965.782 320.901 Q 969.427 325.113 975.421 328.191 L 975.421 328.191 L 975.421 328.191 Q 981.415 331.269 989.029 333.618 L 989.029 333.618 L 989.029 333.618 Q 996.643 335.967 1004.662 338.64 L 1004.662 338.64 L 1004.662 338.64 Q 1012.681 341.313 1020.295 344.553 L 1020.295 344.553 L 1020.295 344.553 Q 1027.909 347.793 1033.903 352.653 L 1033.903 352.653 L 1033.903 352.653 Q 1039.897 357.513 1043.542 364.56 L 1043.542 364.56 L 1043.542 364.56 Q 1047.187 371.607 1047.187 381.489 L 1047.187 381.489 L 1047.187 381.489 Q 1047.187 392.829 1043.137 402.468 L 1043.137 402.468 L 1043.137 402.468 Q 1039.087 412.107 1031.149 419.154 L 1031.149 419.154 L 1031.149 419.154 Q 1023.211 426.201 1011.709 430.251 L 1011.709 430.251 L 1011.709 430.251 Q 1000.207 434.301 985.141 434.301 L 985.141 434.301 L 985.141 434.301 Q 967.969 434.301 954.037 428.712 L 954.037 428.712 L 954.037 428.712 Q 940.105 423.123 930.385 414.375 L 930.385 414.375 L 937.189 403.359 L 937.189 403.359 Q 938.485 401.253 940.267 400.119 L 940.267 400.119 L 940.267 400.119 Q 942.049 398.985 944.965 398.985 L 944.965 398.985 L 944.965 398.985 Q 947.881 398.985 951.121 401.253 L 951.121 401.253 L 951.121 401.253 Q 954.361 403.521 958.978 406.275 L 958.978 406.275 L 958.978 406.275 Q 963.595 409.029 970.156 411.297 L 970.156 411.297 L 970.156 411.297 Q 976.717 413.565 986.599 413.565 L 986.599 413.565 L 986.599 413.565 Q 995.023 413.565 1001.341 411.378 L 1001.341 411.378 L 1001.341 411.378 Q 1007.659 409.191 1011.871 405.465 L 1011.871 405.465 L 1011.871 405.465 Q 1016.083 401.739 1018.108 396.879 L 1018.108 396.879 L 1018.108 396.879 Q 1020.133 392.019 1020.133 386.511 L 1020.133 386.511 L 1020.133 386.511 Q 1020.133 379.707 1016.488 375.252 L 1016.488 375.252 L 1016.488 375.252 Q 1012.843 370.797 1006.849 367.638 L 1006.849 367.638 L 1006.849 367.638 Q 1000.855 364.479 993.16 362.13 L 993.16 362.13 L 993.16 362.13 Q 985.465 359.781 977.446 357.189 L 977.446 357.189 L 977.446 357.189 Q 969.427 354.597 961.732 351.276 L 961.732 351.276 L 961.732 351.276 Q 954.037 347.955 948.043 342.933 L 948.043 342.933 L 948.043 342.933 Q 942.049 337.911 938.404 330.54 L 938.404 330.54 L 938.404 330.54 Q 934.759 323.169 934.759 312.639 L 934.759 312.639 L 934.759 312.639 Q 934.759 303.243 938.647 294.576 L 938.647 294.576 L 938.647 294.576 Q 942.535 285.909 949.987 279.348 L 949.987 279.348 L 949.987 279.348 Q 957.439 272.787 968.293 268.899 L 968.293 268.899 L 968.293 268.899 Q 979.147 265.011 993.079 265.011 L 993.079 265.011 L 993.079 265.011 Q 1009.279 265.011 1022.158 270.114 L 1022.158 270.114 L 1022.158 270.114 Q 1035.037 275.217 1044.433 284.127 L 1044.433 284.127 L 1044.433 284.127 L 1044.433 284.127 L 1044.433 284.127 Z  M 393.517 279.389 L 393.517 363.993 L 393.517 363.993 Q 393.517 367.719 393.679 371.688 L 393.679 371.688 L 393.679 371.688 Q 393.841 375.657 394.327 379.869 L 394.327 379.869 L 259.867 204.909 L 259.867 204.909 Q 257.275 201.669 255.25 200.616 L 255.25 200.616 L 255.25 200.616 Q 253.225 199.563 249.013 199.563 L 249.013 199.563 L 249.013 199.563 L 249.013 199.563 L 249.013 199.563 L 232.813 199.563 L 232.813 431.709 L 260.353 431.709 L 260.353 266.307 L 260.353 266.307 Q 260.353 263.067 260.191 259.179 L 260.191 259.179 L 260.191 259.179 Q 260.029 255.291 259.705 251.241 L 259.705 251.241 L 394.003 426.039 L 394.003 426.039 Q 396.433 429.117 398.944 430.413 L 398.944 430.413 L 398.944 430.413 Q 401.455 431.709 405.181 431.709 L 405.181 431.709 L 421.057 431.709 L 421.057 279.389 L 393.517 279.389 L 393.517 279.389 Z  M 539.641 265.011 L 539.641 265.011 L 539.641 265.011 Q 557.623 265.011 572.122 271.005 L 572.122 271.005 L 572.122 271.005 Q 586.621 276.999 596.746 288.015 L 596.746 288.015 L 596.746 288.015 Q 606.871 299.031 612.298 314.664 L 612.298 314.664 L 612.298 314.664 Q 617.725 330.297 617.725 349.575 L 617.725 349.575 L 617.725 349.575 Q 617.725 369.015 612.298 384.567 L 612.298 384.567 L 612.298 384.567 Q 606.871 400.119 596.746 411.135 L 596.746 411.135 L 596.746 411.135 Q 586.621 422.151 572.122 428.064 L 572.122 428.064 L 572.122 428.064 Q 557.623 433.977 539.641 433.977 L 539.641 433.977 L 539.641 433.977 Q 521.659 433.977 507.16 428.064 L 507.16 428.064 L 507.16 428.064 Q 492.661 422.151 482.455 411.135 L 482.455 411.135 L 482.455 411.135 Q 472.249 400.119 466.741 384.567 L 466.741 384.567 L 466.741 384.567 Q 461.233 369.015 461.233 349.575 L 461.233 349.575 L 461.233 349.575 Q 461.233 330.297 466.741 314.664 L 466.741 314.664 L 466.741 314.664 Q 472.249 299.031 482.455 288.015 L 482.455 288.015 L 482.455 288.015 Q 492.661 276.999 507.16 271.005 L 507.16 271.005 L 507.16 271.005 Q 521.659 265.011 539.641 265.011 L 539.641 265.011 L 539.641 265.011 Z  M 839.179 265.011 L 839.179 265.011 L 839.179 265.011 Q 853.921 265.011 866.395 269.952 L 866.395 269.952 L 866.395 269.952 Q 878.869 274.893 887.941 284.208 L 887.941 284.208 L 887.941 284.208 Q 897.013 293.523 902.116 307.212 L 902.116 307.212 L 902.116 307.212 Q 907.219 320.901 907.219 338.397 L 907.219 338.397 L 907.219 338.397 Q 907.219 345.201 905.761 347.469 L 905.761 347.469 L 905.761 347.469 Q 904.303 349.737 900.253 349.737 L 900.253 349.737 L 791.065 349.737 L 791.065 349.737 Q 791.389 365.289 795.277 376.791 L 795.277 376.791 L 795.277 376.791 Q 799.165 388.293 805.969 395.988 L 805.969 395.988 L 805.969 395.988 Q 812.773 403.683 822.169 407.49 L 822.169 407.49 L 822.169 407.49 Q 831.565 411.297 843.229 411.297 L 843.229 411.297 L 843.229 411.297 Q 854.083 411.297 861.94 408.786 L 861.94 408.786 L 861.94 408.786 Q 869.797 406.275 875.467 403.359 L 875.467 403.359 L 875.467 403.359 Q 881.137 400.443 884.944 397.932 L 884.944 397.932 L 884.944 397.932 Q 888.751 395.421 891.505 395.421 L 891.505 395.421 L 891.505 395.421 Q 895.069 395.421 897.013 398.175 L 897.013 398.175 L 905.113 408.705 L 905.113 408.705 Q 899.767 415.185 892.315 419.964 L 892.315 419.964 L 892.315 419.964 Q 884.863 424.743 876.358 427.821 L 876.358 427.821 L 876.358 427.821 Q 867.853 430.899 858.781 432.438 L 858.781 432.438 L 858.781 432.438 Q 849.709 433.977 840.799 433.977 L 840.799 433.977 L 840.799 433.977 Q 823.789 433.977 809.452 428.226 L 809.452 428.226 L 809.452 428.226 Q 795.115 422.475 784.666 411.378 L 784.666 411.378 L 784.666 411.378 Q 774.217 400.281 768.385 383.919 L 768.385 383.919 L 768.385 383.919 Q 762.553 367.557 762.553 346.335 L 762.553 346.335 L 762.553 346.335 Q 762.553 329.163 767.818 314.259 L 767.818 314.259 L 767.818 314.259 Q 773.083 299.355 782.965 288.42 L 782.965 288.42 L 782.965 288.42 Q 792.847 277.485 807.103 271.248 L 807.103 271.248 L 807.103 271.248 Q 821.359 265.011 839.179 265.011 L 839.179 265.011 L 839.179 265.011 Z " fill-rule="evenodd" fill="rgb(255,255,255)" fill-opacity="0.27"/></g></svg>