<?xml version="1.0" encoding="UTF-8" standalone="no"?><!-- Generator: Gravit.io --><svg xmlns="http://www.w3.org/2000/svg" xmlns:xlink="http://www.w3.org/1999/xlink" style="isolation:isolate" viewBox="0 0 1096 1075" width="1096pt" height="1075pt"><defs><clipPath id="_clipPath_RNmJn7ydSGwEuEZPewJVO7URxTifv5a5"><rect width="1096" height="1075"/></clipPath></defs><g clip-path="url(#_clipPath_RNmJn7ydSGwEuEZPewJVO7URxTifv5a5)"><path d=" M 536 0.1 C 766.8 0 797.8 0.2 808 1.6 C 814.3 2.4 825.4 4.2 832.5 5.5 C 839.6 6.9 851.8 9.8 859.5 12 C 867.2 14.3 878.7 18.2 885 20.7 C 891.3 23.2 903.7 28.9 912.5 33.4 C 921.3 37.8 933.9 45.1 940.5 49.5 C 947.1 53.9 957 61.1 962.5 65.4 C 968 69.8 978.1 78.8 984.8 85.4 C 991.6 92.1 1000.9 101.9 1005.3 107.3 C 1009.8 112.8 1016.1 120.9 1019.3 125.3 C 1022.6 129.8 1027.7 137.6 1030.8 142.5 C 1033.8 147.4 1039.1 156.9 1042.5 163.5 C 1045.8 170.1 1050.9 181.3 1053.7 188.5 C 1056.5 195.7 1060.5 207.1 1062.5 214 C 1064.6 220.9 1067.3 231.7 1068.6 238 C 1069.9 244.3 1071.6 254.9 1072.5 261.5 C 1073.3 268.1 1074.3 280.5 1074.6 289 C 1075.2 301.7 1075 305.7 1073.6 311 C 1072.7 314.6 1070.7 320 1069.2 323 C 1067.7 326 1063.6 331.4 1060 335 C 1056.4 338.6 1051 342.7 1048 344.2 C 1045 345.7 1039.8 347.6 1036.5 348.5 C 1033.2 349.3 1028 350 1025 350 C 1022 350 1016.8 349.3 1013.5 348.5 C 1010.2 347.6 1005.2 345.8 1002.5 344.5 C 999.7 343.1 995.2 340 992.5 337.6 C 989.7 335.3 985.8 330.9 983.8 327.9 C 981.7 324.9 979.1 319.8 977.9 316.5 C 976.3 312 975.5 306.5 974.9 294.5 C 974.4 285.7 973.3 274.2 972.6 269 C 971.8 263.8 970 254.8 968.5 249 C 967.1 243.2 963.8 233.3 961.3 227 C 958.8 220.7 955.4 212.8 953.7 209.5 C 952.1 206.2 948.7 200.1 946.2 196 C 943.7 191.9 939.2 185.1 936.2 181 C 933.1 176.9 927.9 170.4 924.6 166.6 C 921.2 162.8 914 155.7 908.5 150.8 C 903 145.9 894 138.8 888.5 135.1 C 883 131.3 874.2 126 869 123.2 C 863.8 120.4 854.3 116.1 848 113.6 C 841.7 111.1 832 108 826.5 106.5 C 821 105.1 811.8 103.2 806 102.2 C 796.3 100.6 776.2 100.5 537.5 100.5 C 290.9 100.5 279 100.6 268 102.4 C 261.7 103.4 251.9 105.5 246.2 107.1 C 240.6 108.7 231.4 111.8 225.8 114.1 C 220.1 116.3 211.2 120.4 206 123.2 C 200.8 126 192.4 130.9 187.5 134.3 C 182.6 137.6 174.7 143.5 170.1 147.4 C 165.5 151.3 158.3 158.1 154.2 162.5 C 150.1 166.9 143.7 174.6 140 179.5 C 136.3 184.4 131 192.3 128.2 197 C 125.4 201.7 121 210 118.4 215.5 C 115.9 221 112 230.7 110 237 C 107.9 243.3 105.3 253 104.2 258.5 C 103 264 101.6 272.9 101.1 278.3 C 100.3 284.9 100 368.2 100 537 C 100 701.8 100.4 789.3 101 795.8 C 101.6 801.1 103 810.2 104.1 816 C 105.3 821.8 108 831.9 110.1 838.5 C 112.3 845.1 116.9 856.4 120.4 863.5 C 123.9 870.6 129.8 881 133.5 886.5 C 137.2 892 143.4 900.3 147.4 904.9 C 151.3 909.5 158.1 916.7 162.5 920.8 C 166.9 924.9 174.6 931.3 179.5 935 C 184.4 938.7 191.9 943.7 196 946.2 C 200.1 948.7 206.2 952.1 209.5 953.8 C 212.8 955.4 220.1 958.6 225.8 960.9 C 231.4 963.2 240.6 966.3 246.2 967.9 C 251.9 969.5 261.7 971.6 268 972.6 C 279 974.4 290.9 974.5 537.5 974.5 C 776.2 974.5 796.3 974.4 806 972.8 C 811.8 971.8 821 969.9 826.5 968.5 C 832 967 841.7 963.9 848 961.4 C 854.3 958.9 863.8 954.6 869 951.8 C 874.2 949 883 943.7 888.5 940 C 894 936.2 902.5 929.6 907.4 925.3 C 912.3 921 920.1 913.2 924.7 908 C 929.3 902.8 936.2 894 939.9 888.5 C 943.6 883 949 874.2 951.8 869 C 954.5 863.8 958.8 854.3 961.3 848 C 963.8 841.7 967 832 968.4 826.5 C 969.8 821 971.7 812.2 972.6 807 C 974.1 798.7 974.4 787.4 974.9 718.5 C 975.5 639.6 975.5 639.5 977.8 633.5 C 979 630.2 981.7 625.1 983.8 622.1 C 985.8 619.1 989.8 614.7 992.5 612.3 C 995.3 609.8 999.8 606.8 1002.5 605.4 C 1005.3 604.1 1010.2 602.4 1013.5 601.5 C 1016.8 600.7 1022 600 1025 600 C 1028 600 1033.2 600.7 1036.5 601.5 C 1039.8 602.4 1045 604.2 1048 605.7 C 1051.3 607.3 1056.2 611 1060 614.9 C 1064.1 619 1067.7 623.9 1069.7 628 C 1071.4 631.6 1073.4 637.2 1074 640.5 C 1074.8 644.8 1075 668.2 1074.7 725 C 1074.4 790 1074 805.3 1072.7 814 C 1071.8 819.8 1070.2 829.2 1069 835 C 1067.8 840.8 1065.7 849.8 1064.3 855 C 1062.9 860.2 1059.8 870.1 1057.3 877 C 1054.8 883.9 1051.1 893.3 1049 898 C 1046.9 902.7 1042.4 911.7 1039 918 C 1035.5 924.3 1029.5 934.5 1025.5 940.5 C 1021.5 946.5 1014.5 956.2 1010 962 C 1005.4 967.8 996 978.3 989.1 985.4 C 982.2 992.4 971.1 1002.6 964.5 1007.9 C 957.9 1013.2 947.1 1021.1 940.5 1025.5 C 933.9 1029.9 921.8 1036.9 913.5 1041.1 C 905.3 1045.4 893.5 1050.9 887.5 1053.4 C 881.5 1055.8 870.4 1059.7 863 1061.9 C 855.6 1064.1 844.3 1067.1 838 1068.4 C 831.7 1069.8 819.3 1071.8 810.5 1073 C 794.6 1075 793.3 1075 533 1074.7 C 293.3 1074.5 270.6 1074.3 260.5 1072.7 C 254.4 1071.8 245 1070.1 239.5 1069 C 234 1067.9 224.1 1065.5 217.5 1063.6 C 210.9 1061.7 201 1058.5 195.5 1056.5 C 190 1054.4 180.6 1050.5 174.5 1047.8 C 168.4 1045.1 159.4 1040.6 154.5 1037.8 C 149.6 1035 140.3 1029.3 134 1025.1 C 127.7 1021 117.1 1013.2 110.5 1007.9 C 103.9 1002.6 92.6 992.2 85.4 984.9 C 78.3 977.5 69 967.2 64.8 962 C 60.7 956.8 54.1 947.8 50.2 942 C 46.4 936.2 40.5 926.5 37.2 920.5 C 33.8 914.5 28.7 904.3 25.9 898 C 23.1 891.7 18.4 879.3 15.5 870.5 C 12.6 861.7 9 849.3 7.6 843 C 6.2 836.7 4.4 827 3.5 821.5 C 2.7 816 1.5 805.6 1 798.5 C 0.2 789.7 0 702.9 0.5 270.5 L 2.8 256.5 C 4.1 248.8 6.6 236.2 8.5 228.5 C 10.4 220.8 13.7 209.2 16 202.8 C 18.2 196.3 22.5 185.3 25.5 178.3 C 28.5 171.2 33.8 160.6 37.2 154.5 C 40.5 148.4 46.8 138.3 51.1 132 C 55.4 125.7 61.9 116.7 65.6 112 C 69.3 107.3 79.8 96 88.9 86.9 C 99.6 76.3 110 67 118.2 60.9 C 125.1 55.7 135.5 48.6 141.2 45 C 146.8 41.5 156.4 36.1 162.5 33 C 168.6 29.9 177.6 25.7 182.5 23.6 C 187.4 21.6 196 18.3 201.5 16.4 C 207 14.4 218.3 11.1 226.5 9 C 234.8 6.9 247.1 4.5 254 3.5 C 260.9 2.6 268.5 1.5 271 1 C 273.5 0.6 392.7 0.2 536 0.1 L 536 0.1 Z  M 955.5 377.1 C 1020.7 377.1 1062.9 377.4 1066.8 378 C 1070.2 378.6 1075.1 380.1 1077.8 381.4 C 1080.4 382.7 1084.2 385.6 1086.2 387.7 C 1088.2 389.8 1091.3 394.5 1093 398.2 C 1095.1 403.1 1096 406.5 1096 410.2 C 1096 413.1 1095 418.2 1093.8 421.5 C 1092.2 425.9 1090 429.1 1085.5 433.6 C 1080.7 438.6 1078.4 440.1 1073.5 441.6 C 1067.8 443.4 1062.1 443.5 843.5 443.5 L 838 441.3 C 835 440.1 830.5 437.4 828.1 435.3 C 825.5 433 822.6 429 820.6 425 C 817.9 419.4 817.5 417.5 817.5 410.5 C 817.5 404.5 818.1 401.3 819.7 397.5 C 821 394.5 824.2 390.3 827.5 387.2 C 830.5 384.4 834.7 381.3 836.8 380.4 C 838.8 379.5 842.8 378.4 845.5 378 C 848.3 377.6 897.8 377.2 955.5 377.1 Z  M 955.5 504.1 C 1020.7 504.1 1062.9 504.4 1066.8 505 C 1070.2 505.6 1075.1 507.1 1077.8 508.4 C 1080.4 509.7 1084.1 512.6 1086.1 514.7 C 1088.1 516.8 1090.4 519.9 1091.3 521.5 C 1092.2 523.1 1093.6 526.3 1094.5 528.5 C 1095.3 530.7 1096 534.7 1096 537.5 C 1096 540.2 1095.3 544.3 1094.5 546.5 C 1093.6 548.7 1092.2 551.9 1091.3 553.5 C 1090.4 555.1 1088.1 558.2 1086.1 560.3 C 1084.1 562.4 1080.4 565.3 1077.8 566.6 C 1075.1 567.9 1070.2 569.4 1066.8 570 C 1062.9 570.6 1020.5 571 956.5 571 C 894.4 571 849.9 570.6 846 570 C 842.4 569.5 837.7 568.1 835.5 567 C 833.3 566 829.5 563.1 827.1 560.8 C 824.6 558.4 821.5 554 820.1 551 C 818 546.5 817.5 544 817.5 537.5 C 817.5 531.5 818.1 528.3 819.7 524.5 C 821 521.5 824.2 517.3 827.5 514.2 C 830.5 511.4 834.7 508.3 836.8 507.4 C 838.8 506.5 842.8 505.4 845.5 505 C 848.3 504.6 897.8 504.2 955.5 504.1 L 955.5 504.1 Z " fill="rgb(255,255,255)"/></g></svg>