<?xml version="1.0" encoding="UTF-8" standalone="no"?><!-- Generator: Gravit.io --><svg xmlns="http://www.w3.org/2000/svg" xmlns:xlink="http://www.w3.org/1999/xlink" style="isolation:isolate" viewBox="0 0 512 633.864" width="512pt" height="633.864pt"><defs><clipPath id="_clipPath_AB1EgElPVbWKEYXUf6PPsdkrOTj0915J"><rect width="512" height="633.864"/></clipPath></defs><g clip-path="url(#_clipPath_AB1EgElPVbWKEYXUf6PPsdkrOTj0915J)"><rect width="512" height="633.864" style="fill:rgb(11,4,7)"/><g><defs><filter id="LvLxWGA7sXaS8PgtcYSRWEfwW0GjLFc9" x="-200%" y="-200%" width="400%" height="400%" filterUnits="objectBoundingBox" color-interpolation-filters="sRGB"><feGaussianBlur xmlns="http://www.w3.org/2000/svg" stdDeviation="21.46804531419514"/></filter></defs><g opacity="0.14" filter="url(#LvLxWGA7sXaS8PgtcYSRWEfwW0GjLFc9)"><path d=" M 325.857 160.222 L 325.857 210.234 L 375.869 210.234 L 325.857 160.222 L 325.857 160.222 Z  M 298.072 107.432 L 298.072 240.797 L 425.881 240.797 L 298.072 107.432 L 298.072 107.432 Z  M 376.174 251.51 L 376.174 404.211 L 376.174 404.211 Q 376.174 410.936 376.466 418.1 L 376.466 418.1 L 376.466 418.1 Q 376.759 425.264 377.636 432.866 L 377.636 432.866 L 134.949 117.081 L 134.949 117.081 Q 130.271 111.233 126.616 109.332 L 126.616 109.332 L 126.616 109.332 Q 122.961 107.432 115.359 107.432 L 115.359 107.432 L 115.359 107.432 L 115.359 107.432 L 115.359 107.432 L 86.119 107.432 L 86.119 526.432 L 135.826 526.432 L 135.826 227.898 L 135.826 227.898 Q 135.826 222.05 135.534 215.033 L 135.534 215.033 L 135.534 215.033 Q 135.241 208.015 134.657 200.705 L 134.657 200.705 L 377.051 516.198 L 377.051 516.198 Q 381.437 521.753 385.969 524.093 L 385.969 524.093 L 385.969 524.093 Q 390.501 526.432 397.226 526.432 L 397.226 526.432 L 425.881 526.432 L 425.881 251.51 L 376.174 251.51 L 376.174 251.51 Z " fill-rule="evenodd" fill="rgb(171,188,244)"/></g><radialGradient id="_rgradient_2" fx="0.5" fy="0.5" cx="0.5" cy="0.5" r="0.5" gradientTransform="matrix(339.761,0,0,419,86.119,107.432)" gradientUnits="userSpaceOnUse"><stop offset="0%" stop-opacity="1" style="stop-color:rgb(171,188,244)"/><stop offset="32.5%" stop-opacity="1" style="stop-color:rgb(89,110,179)"/><stop offset="63.33333333333333%" stop-opacity="1" style="stop-color:rgb(138,62,164)"/><stop offset="80.41666666666667%" stop-opacity="1" style="stop-color:rgb(130,31,95)"/><stop offset="98.33333333333333%" stop-opacity="1" style="stop-color:rgb(53,11,30)"/></radialGradient><path d=" M 325.857 160.222 L 325.857 210.234 L 375.869 210.234 L 325.857 160.222 L 325.857 160.222 Z  M 298.072 107.432 L 298.072 240.797 L 425.881 240.797 L 298.072 107.432 L 298.072 107.432 Z  M 376.174 251.51 L 376.174 404.211 L 376.174 404.211 Q 376.174 410.936 376.466 418.1 L 376.466 418.1 L 376.466 418.1 Q 376.758 425.264 377.636 432.866 L 377.636 432.866 L 134.949 117.081 L 134.949 117.081 Q 130.271 111.233 126.616 109.332 L 126.616 109.332 L 126.616 109.332 Q 122.961 107.432 115.359 107.432 L 115.359 107.432 L 115.359 107.432 L 115.359 107.432 L 115.359 107.432 L 86.119 107.432 L 86.119 526.432 L 135.826 526.432 L 135.826 227.898 L 135.826 227.898 Q 135.826 222.05 135.534 215.033 L 135.534 215.033 L 135.534 215.033 Q 135.241 208.015 134.657 200.705 L 134.657 200.705 L 377.051 516.198 L 377.051 516.198 Q 381.437 521.754 385.969 524.093 L 385.969 524.093 L 385.969 524.093 Q 390.501 526.432 397.226 526.432 L 397.226 526.432 L 425.881 526.432 L 425.881 251.51 L 376.174 251.51 L 376.174 251.51 Z " fill-rule="evenodd" fill="url(#_rgradient_2)"/></g></g></svg>