<svg version="1.2" xmlns="http://www.w3.org/2000/svg" viewBox="0 0 1096 1075" width="1096" height="1075">
	<title>Untitled-2</title>
	<style>
		.s0 { fill: #000000 } 
	</style>
	<path id="Path 0" class="s0" d="m536 0.1c230.8-0.1 261.8 0.1 272 1.5 6.3 0.8 17.4 2.6 24.5 3.9 7.1 1.4 19.3 4.3 27 6.5 7.7 2.3 19.2 6.2 25.5 8.7 6.3 2.5 18.7 8.2 27.5 12.7 8.8 4.4 21.4 11.7 28 16.1 6.6 4.4 16.5 11.6 22 15.9 5.5 4.4 15.6 13.4 22.3 20 6.8 6.7 16.1 16.5 20.5 21.9 4.5 5.5 10.8 13.6 14 18 3.3 4.5 8.4 12.3 11.5 17.2 3 4.9 8.3 14.4 11.7 21 3.3 6.6 8.4 17.8 11.2 25 2.8 7.2 6.8 18.6 8.8 25.5 2.1 6.9 4.8 17.7 6.1 24 1.3 6.3 3 16.9 3.9 23.5 0.8 6.6 1.8 19 2.1 27.5 0.6 12.7 0.4 16.7-1 22-0.9 3.6-2.9 9-4.4 12-1.5 3-5.6 8.4-9.2 12-3.6 3.6-9 7.7-12 9.2-3 1.5-8.2 3.4-11.5 4.3-3.3 0.8-8.5 1.5-11.5 1.5-3 0-8.2-0.7-11.5-1.5-3.3-0.9-8.3-2.7-11-4-2.8-1.4-7.3-4.5-10-6.9-2.8-2.3-6.7-6.7-8.7-9.7-2.1-3-4.7-8.1-5.9-11.4-1.6-4.5-2.4-10-3-22-0.5-8.8-1.6-20.3-2.3-25.5-0.8-5.2-2.6-14.2-4.1-20-1.4-5.8-4.7-15.7-7.2-22-2.5-6.3-5.9-14.2-7.6-17.5-1.6-3.3-5-9.4-7.5-13.5-2.5-4.1-7-10.9-10-15-3.1-4.1-8.3-10.6-11.6-14.4-3.4-3.8-10.6-10.9-16.1-15.8-5.5-4.9-14.5-12-20-15.7-5.5-3.8-14.3-9.1-19.5-11.9-5.2-2.8-14.7-7.1-21-9.6-6.3-2.5-16-5.6-21.5-7.1-5.5-1.4-14.7-3.3-20.5-4.3-9.7-1.6-29.8-1.7-268.5-1.7-246.6 0-258.5 0.1-269.5 1.9-6.3 1-16.1 3.1-21.8 4.7-5.6 1.6-14.8 4.7-20.4 7-5.7 2.2-14.6 6.3-19.8 9.1-5.2 2.8-13.6 7.7-18.5 11.1-4.9 3.3-12.8 9.2-17.4 13.1-4.6 3.9-11.8 10.7-15.9 15.1-4.1 4.4-10.5 12.1-14.2 17-3.7 4.9-9 12.8-11.8 17.5-2.8 4.7-7.2 13-9.8 18.5-2.5 5.5-6.4 15.2-8.4 21.5-2.1 6.3-4.7 16-5.8 21.5-1.2 5.5-2.6 14.4-3.1 19.8-0.8 6.6-1.1 89.9-1.1 258.7 0 164.8 0.4 252.3 1 258.8 0.6 5.3 2 14.4 3.1 20.2 1.2 5.8 3.9 15.9 6 22.5 2.2 6.6 6.8 17.9 10.3 25 3.5 7.1 9.4 17.5 13.1 23 3.7 5.5 9.9 13.8 13.9 18.4 3.9 4.6 10.7 11.8 15.1 15.9 4.4 4.1 12.1 10.5 17 14.2 4.9 3.7 12.4 8.7 16.5 11.2 4.1 2.5 10.2 5.9 13.5 7.6 3.3 1.6 10.6 4.8 16.3 7.1 5.6 2.3 14.8 5.4 20.4 7 5.7 1.6 15.5 3.7 21.8 4.7 11 1.8 22.9 1.9 269.5 1.9 238.7 0 258.8-0.1 268.5-1.7 5.8-1 15-2.9 20.5-4.3 5.5-1.5 15.2-4.6 21.5-7.1 6.3-2.5 15.8-6.8 21-9.6 5.2-2.8 14-8.1 19.5-11.8 5.5-3.8 14-10.4 18.9-14.7 4.9-4.3 12.7-12.1 17.3-17.3 4.6-5.2 11.5-14 15.2-19.5 3.7-5.5 9.1-14.3 11.9-19.5 2.7-5.2 7-14.7 9.5-21 2.5-6.3 5.7-16 7.1-21.5 1.4-5.5 3.3-14.3 4.2-19.5 1.5-8.3 1.8-19.6 2.3-88.5 0.6-78.9 0.6-79 2.9-85 1.2-3.3 3.9-8.4 6-11.4 2-3 6-7.4 8.7-9.8 2.8-2.5 7.3-5.5 10-6.9 2.8-1.3 7.7-3 11-3.9 3.3-0.8 8.5-1.5 11.5-1.5 3 0 8.2 0.7 11.5 1.5 3.3 0.9 8.5 2.7 11.5 4.2 3.3 1.6 8.2 5.3 12 9.2 4.1 4.1 7.7 9 9.7 13.1 1.7 3.6 3.7 9.2 4.3 12.5 0.8 4.3 1 27.7 0.7 84.5-0.3 65-0.7 80.3-2 89-0.9 5.8-2.5 15.2-3.7 21-1.2 5.8-3.3 14.8-4.7 20-1.4 5.2-4.5 15.1-7 22-2.5 6.9-6.2 16.3-8.3 21-2.1 4.7-6.6 13.7-10 20-3.5 6.3-9.5 16.5-13.5 22.5-4 6-11 15.7-15.5 21.5-4.6 5.8-14 16.3-20.9 23.4-6.9 7-18 17.2-24.6 22.5-6.6 5.3-17.4 13.2-24 17.6-6.6 4.4-18.7 11.4-27 15.6-8.2 4.3-20 9.8-26 12.3-6 2.4-17.1 6.3-24.5 8.5-7.4 2.2-18.7 5.2-25 6.5-6.3 1.4-18.7 3.4-27.5 4.6-15.9 2-17.2 2-277.5 1.7-239.7-0.2-262.4-0.4-272.5-2-6.1-0.9-15.5-2.6-21-3.7-5.5-1.1-15.4-3.5-22-5.4-6.6-1.9-16.5-5.1-22-7.1-5.5-2.1-14.9-6-21-8.7-6.1-2.7-15.1-7.2-20-10-4.9-2.8-14.2-8.5-20.5-12.7-6.3-4.1-16.9-11.9-23.5-17.2-6.6-5.3-17.9-15.7-25.1-23-7.1-7.4-16.4-17.7-20.6-22.9-4.1-5.2-10.7-14.2-14.6-20-3.8-5.8-9.7-15.5-13-21.5-3.4-6-8.5-16.2-11.3-22.5-2.8-6.3-7.5-18.7-10.4-27.5-2.9-8.8-6.5-21.2-7.9-27.5-1.4-6.3-3.2-16-4.1-21.5-0.8-5.5-2-15.9-2.5-23-0.8-8.8-1-95.6-0.5-528l2.3-14c1.3-7.7 3.8-20.3 5.7-28 1.9-7.7 5.2-19.3 7.5-25.7 2.2-6.5 6.5-17.5 9.5-24.5 3-7.1 8.3-17.7 11.7-23.8 3.3-6.1 9.6-16.2 13.9-22.5 4.3-6.3 10.8-15.3 14.5-20 3.7-4.7 14.2-16 23.3-25.1 10.7-10.6 21.1-19.9 29.3-26 6.9-5.2 17.3-12.3 23-15.9 5.6-3.5 15.2-8.9 21.3-12 6.1-3.1 15.1-7.3 20-9.4 4.9-2 13.5-5.3 19-7.2 5.5-2 16.8-5.3 25-7.4 8.3-2.1 20.6-4.5 27.5-5.5 6.9-0.9 14.5-2 17-2.5 2.5-0.4 121.7-0.8 265-0.9zm419.5 377c65.2 0 107.4 0.3 111.3 0.9 3.4 0.6 8.3 2.1 11 3.4 2.6 1.3 6.4 4.2 8.4 6.3 2 2.1 5.1 6.8 6.8 10.5 2.1 4.9 3 8.3 3 12 0 2.9-1 8-2.2 11.3-1.6 4.4-3.8 7.6-8.3 12.1-4.8 5-7.1 6.5-12 8-5.7 1.8-11.4 1.9-230 1.9l-5.5-2.2c-3-1.2-7.5-3.9-9.9-6-2.6-2.3-5.5-6.3-7.5-10.3-2.7-5.6-3.1-7.5-3.1-14.5 0-6 0.6-9.2 2.2-13 1.3-3 4.5-7.2 7.8-10.3 3-2.8 7.2-5.9 9.3-6.8 2-0.9 6-2 8.7-2.4 2.8-0.4 52.3-0.8 110-0.9zm0 127c65.2 0 107.4 0.3 111.3 0.9 3.4 0.6 8.3 2.1 11 3.4 2.6 1.3 6.3 4.2 8.3 6.3 2 2.1 4.3 5.2 5.2 6.8 0.9 1.6 2.3 4.8 3.2 7 0.8 2.2 1.5 6.2 1.5 9 0 2.7-0.7 6.8-1.5 9-0.9 2.2-2.3 5.4-3.2 7-0.9 1.6-3.2 4.7-5.2 6.8-2 2.1-5.7 5-8.3 6.3-2.7 1.3-7.6 2.8-11 3.4-3.9 0.6-46.3 1-110.3 1-62.1 0-106.6-0.4-110.5-1-3.6-0.5-8.3-1.9-10.5-3-2.2-1-6-3.9-8.4-6.2-2.5-2.4-5.6-6.8-7-9.8-2.1-4.5-2.6-7-2.6-13.5 0-6 0.6-9.2 2.2-13 1.3-3 4.5-7.2 7.8-10.3 3-2.8 7.2-5.9 9.3-6.8 2-0.9 6-2 8.7-2.4 2.8-0.4 52.3-0.8 110-0.9z"/>
</svg>